<svg id="Layer_1" data-name="Layer 1" xmlns="http://www.w3.org/2000/svg" viewBox="0 0 381.63 68.83"><defs><style>.cls-1,.cls-4,.cls-5,.cls-6,.cls-7,.cls-8,.cls-9{fill:none;}.cls-2{fill:#383535;}.cls-3{fill:#5c4941;}.cls-4,.cls-6,.cls-7,.cls-8{stroke:#383535;}.cls-4,.cls-5,.cls-6,.cls-7,.cls-8,.cls-9{stroke-miterlimit:10;}.cls-4,.cls-5{stroke-width:5px;}.cls-5,.cls-9{stroke:#5c4941;}.cls-6,.cls-7{stroke-linecap:square;}.cls-6,.cls-8,.cls-9{stroke-width:3px;}.cls-7{stroke-width:4px;}</style></defs><path class="cls-1" d="M247,189.85" transform="translate(-100.86 -151.41)"/><path class="cls-2" d="M166.93,185.25h13.46v-13.4h9.37v35.9h-9.37V193.22H166.93v14.53h-9.31v-35.9h9.31Z" transform="translate(-100.86 -151.41)"/><path class="cls-2" d="M229.66,203.23a21.47,21.47,0,0,1-28.32,0,18.76,18.76,0,0,1,0-26.86,21.47,21.47,0,0,1,28.32,0,18.79,18.79,0,0,1,0,26.86Zm-21.43-20.29a9.82,9.82,0,0,0-2.85,7.05,9.1,9.1,0,0,0,2.85,6.67,10.17,10.17,0,0,0,7.27,2.86,9.76,9.76,0,0,0,10.12-9.69,9.67,9.67,0,0,0-2.91-6.89,10.73,10.73,0,0,0-7.21-2.86A10.34,10.34,0,0,0,208.23,182.94Z" transform="translate(-100.86 -151.41)"/><path class="cls-2" d="M238.92,207.75l6.08-35.9h9.21L261.48,191l7.7-19.16h9.31l5.38,35.9h-9.31l-2.64-20.67-8.67,20.67h-3.71l-8.29-20.67-3.07,20.67Z" transform="translate(-100.86 -151.41)"/><path class="cls-2" d="M310.2,179.76H299.11v6h10.5v7.91h-10.5v6.19H310.2v7.91H289.8v-35.9h20.4Z" transform="translate(-100.86 -151.41)"/><path class="cls-3" d="M324.21,172.11h7.32c3.61,0,8.72.38,13.24,4.2a17.51,17.51,0,0,1,6.14,13.79,17.09,17.09,0,0,1-6.3,13.78c-3.28,2.8-6.73,4.14-13.13,4.14h-7.27Zm4,32.15h3.5A15.35,15.35,0,0,0,342,201a13.73,13.73,0,0,0,4.84-10.92c0-8.62-6-14.22-15.13-14.22h-3.5Z" transform="translate(-100.86 -151.41)"/><path class="cls-3" d="M376.86,175.88H362.22v10.66h14.21v3.77H362.22v13.95h14.64V208H358.24V172.11h18.62Z" transform="translate(-100.86 -151.41)"/><path class="cls-3" d="M411.64,180a17.66,17.66,0,0,0-4.68-3.34,15.3,15.3,0,0,0-6.19-1.4c-8.29,0-14.43,6.68-14.43,15a14.37,14.37,0,0,0,14.48,14.64,14.93,14.93,0,0,0,6.68-1.67,16.36,16.36,0,0,0,4.14-3v4.95a18.72,18.72,0,0,1-10.82,3.5,18.15,18.15,0,0,1-18.57-18.47c0-10.71,8-18.68,18.79-18.68a16.88,16.88,0,0,1,10.6,3.56Z" transform="translate(-100.86 -151.41)"/><path class="cls-3" d="M417,190.1a18.68,18.68,0,1,1,18.68,18.57A18.33,18.33,0,0,1,417,190.1Zm4.09,0a14.59,14.59,0,1,0,14.59-14.81A14.65,14.65,0,0,0,421.12,190.1Z" transform="translate(-100.86 -151.41)"/><path class="cls-3" d="M467.48,172.11c2.42,0,6,.17,8.72,2a9.36,9.36,0,0,1,3.93,8c0,5.5-3.61,9.53-9.05,9.91l11.42,16h-4.85L466.72,192.3h-1V208h-4V172.11Zm-1.78,16.64h2.53c4.95,0,7.91-2.37,7.91-6.57a5.58,5.58,0,0,0-2.85-5.27,10.18,10.18,0,0,0-5.17-1H465.7Z" transform="translate(-100.86 -151.41)"/><path class="cls-4" d="M285.15,186" transform="translate(-100.86 -151.41)"/><path class="cls-5" d="M176,189.85" transform="translate(-100.86 -151.41)"/><path class="cls-6" d="M150.23,189.85" transform="translate(-100.86 -151.41)"/><path class="cls-7" d="M150,189.85" transform="translate(-100.86 -151.41)"/><path class="cls-7" d="M150.3,189.85" transform="translate(-100.86 -151.41)"/><path class="cls-5" d="M242.56,189.85" transform="translate(-100.86 -151.41)"/><path class="cls-8" d="M547.67,202.33" transform="translate(-100.86 -151.41)"/><path class="cls-7" d="M136.59,226.37" transform="translate(-100.86 -151.41)"/><polyline class="cls-8" points="34.64 14.75 18.48 1.93 1.5 15.89 1.5 53.75"/><path class="cls-6" d="M137.21,194" transform="translate(-100.86 -151.41)"/><polyline class="cls-9" points="42.12 30.97 25.96 18.15 10.12 30.97 10.12 68.83"/><rect class="cls-2" x="16.79" y="36.05" width="6.6" height="6.6"/><rect class="cls-2" x="28.85" y="36.05" width="6.6" height="6.6"/><path class="cls-6" d="M137.21,204.8" transform="translate(-100.86 -151.41)"/><rect class="cls-2" x="16.79" y="46.82" width="6.6" height="6.6"/><rect class="cls-2" x="28.85" y="46.82" width="6.6" height="6.6"/><path class="cls-8" d="M132.59,221.67" transform="translate(-100.86 -151.41)"/><polyline class="cls-9" points="40.01 57.65 40.01 66.37 30.91 66.37"/></svg>